/* XPM */
static char *ec3034b49cda4be8cab8b4f90cddbd64RWz18bSCZL6D7ebf[] = {
/* columns rows colors chars-per-pixel */
"50 50 223 2 ",
"   c #0F0200",
".  c #160701",
"X  c #1A0100",
"o  c #131105",
"O  c #232109",
"+  c #22290B",
"@  c #31280C",
"#  c #3B4615",
"$  c #404916",
"%  c #4B5A1B",
"&  c #634E1F",
"*  c #6F5912",
"=  c #795C19",
"-  c #4D611C",
";  c #54631D",
":  c #6D552C",
">  c #715B29",
",  c #685A35",
"<  c #745E37",
"1  c #566C20",
"2  c #7B6623",
"3  c #74612B",
"4  c #767928",
"5  c #6F6738",
"6  c #706B34",
"7  c #7D6B34",
"8  c #776639",
"9  c #717736",
"0  c #685841",
"q  c #7B6943",
"w  c #8B6B0E",
"e  c #8D6D15",
"r  c #856818",
"t  c #8E6A19",
"y  c #926B14",
"u  c #8A721C",
"i  c #947215",
"p  c #98741A",
"a  c #A77D07",
"s  c #A47A1A",
"d  c #AF7E1F",
"f  c #8E6E27",
"g  c #866E2E",
"h  c #8A6B28",
"j  c #877223",
"k  c #947321",
"l  c #9B7523",
"z  c #977C26",
"x  c #957E2C",
"c  c #9C7C2D",
"v  c #876C33",
"b  c #8B7334",
"n  c #8D7934",
"m  c #88763D",
"M  c #977836",
"N  c #9B7C3C",
"B  c #A37B23",
"V  c #A77C21",
"C  c #A17E34",
"Z  c #836E43",
"A  c #856D49",
"S  c #817141",
"D  c #8A7944",
"F  c #82734C",
"G  c #987C44",
"H  c #8B7052",
"J  c #658528",
"K  c #6B8E2A",
"L  c #74802D",
"P  c #79852F",
"I  c #6F942B",
"U  c #70962C",
"Y  c #769D2E",
"T  c #789F2F",
"R  c #6F8930",
"E  c #788637",
"W  c #7A9834",
"Q  c #77A02F",
"!  c #78A02F",
"~  c #77A030",
"^  c #79A230",
"/  c #7FA833",
"(  c #AC840B",
")  c #A4801C",
"_  c #AA831D",
"`  c #AC8818",
"'  c #B6861A",
"]  c #98842D",
"[  c #8B833C",
"{  c #8D8D3B",
"}  c #9E823B",
"|  c #99853A",
" . c #908E3B",
".. c #849C36",
"X. c #8B943D",
"o. c #A58324",
"O. c #AB8624",
"+. c #A5812B",
"@. c #A98228",
"#. c #AB8D2D",
"$. c #B88B27",
"%. c #BC8C2C",
"&. c #B6932A",
"*. c #BC9328",
"=. c #BC9729",
"-. c #A38734",
";. c #A98331",
":. c #A68C34",
">. c #AC8837",
",. c #A3853C",
"<. c #A58C39",
"1. c #AC8D3A",
"2. c #B68D34",
"3. c #BC8D36",
"4. c #B48F3A",
"5. c #AF903B",
"6. c #BC9A34",
"7. c #BA933A",
"8. c #BA9B3D",
"9. c #82AD34",
"0. c #86B136",
"q. c #C38E28",
"w. c #C29C26",
"e. c #C7982B",
"r. c #C39A2C",
"t. c #C49433",
"y. c #C39C35",
"u. c #CA9E37",
"i. c #C4963D",
"p. c #C49C3A",
"a. c #CB9B3B",
"s. c #D19E3A",
"d. c #C5A02D",
"f. c #CCA32C",
"g. c #C7A631",
"h. c #CCA436",
"j. c #C4A13B",
"k. c #C9A33B",
"l. c #D3A936",
"z. c #D3AC3B",
"x. c #D8B437",
"c. c #E1B339",
"v. c #E7C13B",
"b. c #898C46",
"n. c #9E8242",
"m. c #948C44",
"M. c #948548",
"N. c #998649",
"B. c #93894B",
"V. c #8B9F45",
"C. c #909541",
"Z. c #988558",
"A. c #A78948",
"S. c #B18E47",
"D. c #AD9445",
"F. c #B29445",
"G. c #B69B47",
"H. c #BC9B42",
"J. c #B6944B",
"K. c #BA9B4B",
"L. c #A28C52",
"P. c #A6895E",
"I. c #A89258",
"U. c #B49A54",
"Y. c #BBA559",
"T. c #9C8B62",
"R. c #A69065",
"E. c #9CA467",
"W. c #ABB279",
"Q. c #C59C46",
"!. c #C3A243",
"~. c #CCA343",
"^. c #CDAD43",
"/. c #C5A34B",
"(. c #C9A74B",
"). c #C7A94D",
"_. c #D3AB44",
"`. c #DAAB46",
"'. c #D4A548",
"]. c #D1AF4A",
"[. c #DBAD4C",
"{. c #CCB04C",
"}. c #D6B243",
"|. c #DCB444",
" X c #DCBA47",
".X c #DCB449",
"XX c #D7B848",
"oX c #C2A756",
"OX c #D7B755",
"+X c #DCBD5D",
"@X c #E2B743",
"#X c #E4BC43",
"$X c #EABD44",
"%X c #E5BB4C",
"&X c #ECBB4D",
"*X c #E4BA57",
"=X c #E3BD54",
"-X c #EBBE53",
";X c #EAC241",
":X c #E4C24C",
">X c #ECC44B",
",X c #E9CC49",
"<X c #E6C353",
"1X c #EBC352",
"2X c #ECC759",
"3X c #F4CB54",
"4X c #F4C95B",
"5X c #F5D45A",
"6X c #EDCC67",
"7X c #F9CD6A",
"8X c #FCD164",
"9X c #FFD868",
"0X c #B79E80",
"qX c #B5A383",
"wX c #B7A586",
"eX c #B4B987",
"rX c #BAB595",
"tX c #C0BD95",
"yX c #C6BAA4",
"uX c #C7BAA7",
"iX c #B5C884",
"pX c #BFC09B",
"aX c #C9C5A3",
/* pixels */
"^ T T ^ Q T T T ! ^ ^ 9./ ^ ^ ^ ^ T T ^ ^ ^ T T ^ ^ T U T ^ T T ^ T T ^ ^ ^ / / ^ ^ ^ ^ ^ ^ ! ! ! T ",
"^ ^ ^ T T T ~ ~ T ! ^ ^ / 9.^ ^ 0.^ ^ ^ ^ ^ ^ ^ ^ T T ^ ^ ^ T T ^ Y U ^ ^ ^ T ^ 9.^ ^ 0./ ^ T T T ! ",
"T T T T T Q ^ ~ T ! ^ T ^ ^ ^ ^ ^ Y Y ! ~ T ^ ^ 9.^ ^ ^ ~ T ! ^ ^ T Y ^ ^ ^ T ! ^ ^ ^ ^ ^ T ! ! ! T ",
"T T T T T ^ ^ ~ T Q ! T T ! ^ ^ ^ U U Q T T ^ ^ 0.^ ^ ^ ^ T ^ ^ ^ T T ^ ^ ^ T T ^ ^ ^ ^ T T ^ ^ ^ T ",
"T T ^ ^ ^ 9.^ ^ ^ T T ! T Y T ! T I U T T T ^ ^ 9.^ ^ T ^ 9.T T ^ ^ ^ T ! ^ ^ ^ ^ T T ^ Y U ! ^ 9.^ ",
"T ^ / / / / ^ ^ T T T ^ T Y ! ! T Y Y ^ T T ^ ^ / ^ T T ^ 9.T ^ / / / T T T ^ ~ T T T T Y Y T ^ 0.9.",
"^ 9.0.0./ ^ ^ ^ T ! ^ ^ ^ ^ ^ ! T ^ ^ ^ ^ ^ ^ ^ ^ T T ^ ^ ^ ^ / 9.0.0.^ T T ^ T I Y T T T ~ T ^ 9.0.",
"^ 9.0.^ ^ ^ ^ ^ T ! ^ 9.9.9.^ ^ ^ ^ ^ 9./ ^ ^ ^ ^ ^ T U Y ^ T ! ^ 9.9.^ / 9.^ T I Y T ^ Y U T ^ ^ 9.",
"^ 9.9.^ ^ ^ Q T T Q ^ 9.9.0./ ^ ^ ^ ^ 9.^ T ~ ^ ^ ^ T I Y ^ T T ^ / 9.^ 9.9.^ T U Y T ^ Y Y ! ^ ^ / ",
"^ ^ ^ ^ Q T U Y ^ T T ^ 9.0.9.9.^ 9.9.^ Y I T T ^ T Y I Y T ~ ^ ^ ^ ^ 9.^ ^ T T Q ~ ~ ^ T T ^ ^ ^ ^ ",
"^ T Y ^ ^ T U U T T T T ^ / 9.9.T 9.9.^ U I T T T T T Y Y Y T T ^ ^ ^ / ^ T T T T ^ ^ ^ ^ T T T T T ",
"^ U I ! ^ Q U I T ! ^ T T ^ 9./ T 9.9.^ U I ^ Q T ! ^ ^ T Y Y T ^ ^ ^ ^ ^ ^ ^ ! T ^ ^ ^ ^ ~ T T T ! ",
"T ! ^ T T ~ T T ^ ^ ^ T T T Y Y T ^ ^ ^ T T T Y I T Q Y T ^ ^ Y I Y T ^ T T ^ ^ 9.^ ^ ^ 9.9.^ ^ ^ T ",
"T ! T T T Q ^ ^ ^ ^ ^ T T T Y T T ^ ^ ^ ! T T Y U T ^ T T ^ ! Y I Y T ^ Q T ^ ^ 9./ ^ ! ^ 9.^ ^ ^ T ",
"^ T T ^ T T 9.9.0.^ ^ ^ ^ ^ T T ^ ^ ^ ^ ^ ^ T T Y.OX].6.(.D.T Y I T ^ ^ ^ ^ ^ ^ ^ 9.0.T T T ^ ^ ^ ^ ",
"T Y U T T ^ ^ / 0.9./ ^ ^ 9.^ ^ ^ T T ^ Q T ! ..+X.Xf.f.h.~.1.T T T T ^ T T ^ ^ ^ ^ ^ ! T Q T T T ^ ",
"T U I T Q ^ ^ ^ 9.0.9.^ 9.9.^ ^ ! T T ^ Q T ..6X*Xh.( a %.'.'.D.^ T T ^ T T ^ ^ ~ ^ ^ ! Q T T T T ^ ",
"T U I ! ^ ^ ^ ^ ^ 9.0.0.9.^ ^ ! T ^ ^ ^ ^ X.2.8Xk.=.z.z._.%.%.4.X.^ ^ ^ T T ^ ! T ~ ^ T U U Y T ^ ^ ",
"T Y U T ^ ^ ! ! ^ ^ 9.9.^ ^ ! T T ^ ^ ^ ^ { 2.7Xu.=.|.l.h.*.6.8.x C.! ! T T Q T Y T T T Y Y T T ^ ^ ",
"^ T T T T ^ T T ^ T T X.{  .m.b.^ ^ ^ iX^ [ 4.7X-Xz.d.w.l.<X^.2.#.z m.B.Z.T.T Y I Y T ^ ^ ^ ^ ^ ^ ^ ",
"^ T Y ~ ^ ^ T T ^ B.oX+X{.!.(.F.D.M.E.rXE.[ u ^.=X1X1X3X$X|.6.j.}.:X(./.J.U.m.^ Q T Y ^ ^ ^ 9.9.^ T ",
"^ T T ^ ^ ^ T ! ^ K.].5Xd.k.k.k.y.1.R.qXwXS j o.}.%X-X&X&Xh.p.z.,Xx.h.~.~.!.,.I.Y ! T ^ ^ 9.0.9.^ T ",
"^ ^ ^ 9.9.^ ^ ^ A.=X<X.X) _ O._.h.6.D.L.qXT.n.e &.r.u.t.3.$.@X>Xx.r.s d `.[.H.A.Z.^ ^ ^ 9.0.9.9.^ ^ ",
"T ~ ^ ^ 9.9.^ ^ :.<X@Xr.u.p.p.r.r.k.1.L.wXH v ,.B s _ V B V #X;X=.r.a.a.q.t.p.5.N.9.9.^ 9.9./ ^ ^ ! ",
"T ! ^ ^ / 9.^ ^ :.:Xx.' .X_.`.$.%.i.S.P.0XA 3 U.c e i w i O.|.@X` 6.[.`.q.' k.>.L./ 0.^ / 9.^ ^ ^ T ",
"^ T T ^ T T ~ ^ <.<X1X#Xw.w.h.4X*XQ.A.P.qXW.O 3 n.U.G.G.8.O..X4XXXg.r.e.&X8Xu.5.N.% 9.^ T T ^ T I T ",
"^ T T ^ ^ T ^ T g 7.:X;Xv.v.;X$Xs.3.M Z # + T o 7 n v g u w y.}.,X,X>X$X@X1X_ z D yX/ ^ ! T T T Y Q ",
"^ T T ^ ^ ^ ^ Q < A.].3X9X5X3X|.y.+.g > O - - . 3 * & > = * +._.5X5X3X5X%X.X) j S yXI ^ ^ ^ T T ^ ^ ",
"^ ^ ! ^ ^ 9.^ ^ I 6 n K.H.4.Q.-.j 4 ; @ A.] ,.} c } X -   N.f l j.6.u.y.2.+.r n T.yXK T ^ ^ ! ! ^ Y ",
"^ ^ ^ ^ / 9.^ ^ ^ ! E m v N N v 4 P [ U.).!.7.Q.2.K.G $ % m N >.+.B s B l l c b Z.yXU T T ^ ^ ^ ^ Y ",
"^ 9.0.0./ ^ ^ ^ T ! T R 6 A 8 m W I F.(.6X.X[.a.s.3.J.X X 3 C ;.y B p B t t -.2 D rXK T T ^ 9./ ^ ^ ",
"9.9.0.^ ^ ^ T T T ! T I Y ! Y Y V.{ OX2X_.*.d %.s.[.4.A.G N c B 7.7.7.7.>.c r n Z.tXI ! ^ ^ ^ / 9.^ ",
"0.0.9.^ ^ ~ T T T ! T I Y ! U U ..<.OX=Xy.t.i.i.u.y.H.1.M f l @.o.o.V V l C h m F eXI ^ ^ ^ ^ ^ 0.^ ",
"9./ ^ ^ ^ ^ ~ ! ! ^ ! Y T ^ T T Q ] OX=X$._.[._.*.&.8.+.N = S.;.e i i y k = L.7 9 T T T T T ^ ^ 9.^ ",
"9.^ ! ^ ^ ~ ^ ^ ^ ^ ^ T ^ ^ ^ ^ ^ { +X<Xf.e.f.f.#X X8.,.L.X v M D.<.5.F.N n.7 E T ^ ^ T Y Y ^ ^ 9.^ ",
"^ T T ^ Q T ~ ^ ^ 9.9.^ ^ ^ T T ^ P G.OX3X$Xc.$X#X^.:.b A % % Z m b b b m 7 E U T ! ^ ^ Y U ! ^ ^ T ",
"T ! ! ^ ^ ! T T ^ 9.9.^ / 9.^ T T E | ).2X>X3X>X X6.,.3 0 K T J , 5 q 8 9 E T T ! ^ ^ ^ Q T T T ^ ^ ",
"T ! ^ ^ ^ ^ T T ^ 9.9.^ 9.0.^ ! T ^ L j /.6.u.p.O.k > 1 K ^ T T Y pXaXeX^ ^ ^ ^ ^ ^ ^ ^ ^ ^ T T ^ ^ ",
"^ U I ! Y I Y T ^ ^ ^ T T T ~ ^ ^ U I m G A.,.,.} v , Y ^ ^ ^ ^ ^ 9.W.^ T T ^ ^ ^ 9.0.^ ^ ^ ^ ! T ! ",
"^ T Y T Y I T T ^ ~ T T T T T ^ ^ Y Y T 6 3 : : : 5 J Y T T ^ ^ ^ / 9./ ^ ^ ^ ^ 9.9.0.^ ^ ^ Q T Y T ",
"^ ^ ^ T Y Y ! ^ ^ T T ^ ^ ! T ! ^ ^ ^ ^ Q T T T Y U Y U Y T ^ ^ ^ ^ ^ 9.0.0.^ ^ 0.9.9.^ ^ ~ T Y U T ",
"^ T T ^ ! ! ^ ^ ^ ^ ^ ^ Q T ! ^ 9.^ ^ ^ ^ ^ ^ ^ ^ T T Q ! ^ ^ Q T T T ^ 9.0.^ ^ 9.^ T T Q ^ ~ ~ T T ",
"^ T T ^ ^ ^ ^ ^ ^ ^ ^ ^ ^ T ^ ^ 0.^ ^ ^ ^ ^ ^ ^ ^ T T ^ ^ ^ ^ T T T T ^ / 9.^ ^ 9.! T T Q ^ ~ ^ ^ T ",
"^ ^ ^ 9./ ^ ^ ^ 0.^ ^ 0.9.^ T ^ 9.0.9.^ ^ ^ 0.9.^ ^ ^ ^ ^ ^ T T ^ Y I ^ ^ ^ ^ ! T T T ^ ^ ^ T T ^ ^ ",
"^ / 9.^ ^ ^ ^ ^ 0.9./ / ^ ^ T ! / 9.9.^ ^ 9.^ ^ T ^ ^ 9.^ ^ T ^ ^ T T ^ ^ ^ T T T Y U ^ ^ ^ ^ ^ ^ Q ",
"^ 9.0.! T ^ ^ ^ 9.9.9.^ ^ ! T T ^ 9.9.^ / 9.T T Y ! ^ 9.9.^ ^ ^ ^ ^ ^ ^ ^ ^ T T ! U I ^ ^ ^ 9.9.^ ! ",
"0.0.9.^ ^ ^ T T ^ 9.9.T T T T T ^ ^ ^ T ^ ^ ^ T I T ^ ^ / 9.0.9.^ ^ ^ 9.^ ^ ^ ^ ! U I T Q ^ ^ / 9.^ ",
"0.9.9.^ ^ ^ T T ^ ^ ^ T T T Y T ^ ^ ^ T T ^ ! T Y T ^ ^ ^ 9.0./ ^ ^ ^ 9.^ ^ T T T Y Y T T ! ^ ^ 0.^ ",
"9.^ ^ T T ^ ^ ^ ^ T T ^ ^ ! U Y ^ ^ ^ ^ ^ ^ T T ^ T T ^ ^ ^ 9./ ^ 9.9.^ ^ ^ U U T ^ ^ ^ T T ^ ^ 9.^ ",
"^ ^ ^ ^ T T ^ ^ T T T ^ ! T T T ^ 9.9.^ ! T Y T ^ T T ^ Y T ^ ^ T ^ ^ T T T T T ! T T ^ ^ Q T T ^ ^ "
};
