/* XPM */
static char *_260e296129048ab835a37cab697d4caEZtqeN6hJZoth1ai[] = {
/* columns rows colors chars-per-pixel */
"50 50 229 2 ",
"   c #050104",
".  c #09030A",
"X  c #030515",
"o  c #1D0E1B",
"O  c #141217",
"+  c #161418",
"@  c #1C141B",
"#  c #1B1A1D",
"$  c #2A110E",
"%  c #280B15",
"&  c #240E1C",
"*  c #251418",
"=  c #21131C",
"-  c #231A1E",
";  c #321316",
":  c #222C12",
">  c #302F18",
",  c #283514",
"<  c #170F23",
"1  c #0E1A2B",
"2  c #131424",
"3  c #1C1423",
"4  c #151A26",
"5  c #1C1A23",
"6  c #13162A",
"7  c #1C162C",
"8  c #13192C",
"9  c #1A1B2D",
"0  c #0C1834",
"q  c #141A34",
"w  c #191831",
"e  c #231523",
"r  c #261927",
"t  c #23152A",
"y  c #391B23",
"u  c #281E35",
"i  c #1D2028",
"p  c #282528",
"a  c #382729",
"s  c #2B3527",
"d  c #262536",
"f  c #372A37",
"g  c #471C23",
"h  c #442329",
"j  c #5A352B",
"k  c #462D3B",
"l  c #552E36",
"z  c #47353C",
"x  c #533535",
"c  c #56393A",
"v  c #68393B",
"b  c #763C3A",
"n  c #3A4C1C",
"m  c #394629",
"M  c #334231",
"N  c #435A1E",
"B  c #485C27",
"V  c #4C4939",
"C  c #674738",
"Z  c #4B6324",
"A  c #526C27",
"S  c #597725",
"D  c #587230",
"F  c #657D30",
"G  c #1F2A49",
"H  c #232943",
"J  c #2C2C47",
"K  c #2F3146",
"L  c #37384C",
"P  c #2E3655",
"I  c #343756",
"U  c #363A56",
"Y  c #3B3C54",
"T  c #353C5C",
"R  c #3B3E5C",
"E  c #353F61",
"W  c #3B3F61",
"Q  c #452E41",
"!  c #4C3A42",
"~  c #4A3846",
"^  c #443B4C",
"/  c #563945",
"(  c #443C55",
")  c #683846",
"_  c #753A4E",
"`  c #3D4056",
"'  c #3D415C",
"]  c #354162",
"[  c #3C4362",
"{  c #384669",
"}  c #3A5A6D",
"|  c #316276",
" . c #4F484F",
".. c #5A484A",
"X. c #464254",
"o. c #43425C",
"O. c #4A455A",
"+. c #584858",
"@. c #664747",
"#. c #684C57",
"$. c #675559",
"%. c #735155",
"&. c #767854",
"*. c #524E63",
"=. c #6E4B61",
"-. c #655B68",
";. c #795A68",
":. c #685D73",
">. c #5E6479",
",. c #6C626B",
"<. c #7B656C",
"1. c #67677C",
"2. c #796B75",
"3. c #874C57",
"4. c #8D4C5A",
"5. c #914C51",
"6. c #885659",
"7. c #96555A",
"8. c #9C5E5D",
"9. c #AE6859",
"0. c #B56B5B",
"q. c #864D61",
"w. c #875164",
"e. c #86686A",
"r. c #976D6F",
"t. c #8A766D",
"y. c #866A74",
"u. c #897576",
"i. c #98737A",
"p. c #A86B67",
"a. c #B46D65",
"s. c #A9726B",
"d. c #B77267",
"f. c #A76E74",
"g. c #AD7473",
"h. c #A8747A",
"j. c #B87575",
"k. c #C8776A",
"l. c #5F8028",
"z. c #63842C",
"x. c #678929",
"c. c #6B8D2C",
"v. c #6E932C",
"b. c #71962D",
"n. c #72992D",
"m. c #759C2E",
"M. c #769D2E",
"N. c #779F2F",
"B. c #789F2F",
"V. c #6A8B32",
"C. c #739831",
"Z. c #77A02F",
"A. c #78A02F",
"S. c #78A130",
"D. c #79A230",
"F. c #7BA431",
"G. c #7DA632",
"H. c #7FA933",
"J. c #82AD34",
"K. c #86B136",
"L. c #BD806B",
"P. c #B8877C",
"I. c #C78975",
"U. c #C98B71",
"Y. c #E1957E",
"T. c #6A7389",
"R. c #977885",
"E. c #947D91",
"W. c #A57781",
"Q. c #668297",
"!. c #5C9CAF",
"~. c #6F96AE",
"^. c #6898AD",
"/. c #9C8E94",
"(. c #AA8C81",
"). c #B78A86",
"_. c #AD948A",
"`. c #B6938C",
"'. c #A89394",
"]. c #B49795",
"[. c #8B90A3",
"{. c #AD9EA5",
"}. c #B898A3",
"|. c #BBA9A8",
" X c #C8938B",
".X c #D9998B",
"XX c #D49A97",
"oX c #C8A698",
"OX c #D4A995",
"+X c #EBA98E",
"@X c #EAAA96",
"#X c #F7BC99",
"$X c #FDBE9A",
"%X c #C8A9A5",
"&X c #D1B4AD",
"*X c #D4B5B4",
"=X c #ECBCA9",
"-X c #F4BCA7",
";X c #FCBFA4",
":X c #E7BEB5",
">X c #F8BEB9",
",X c #FDC49D",
"<X c #DEC3BC",
"1X c #EAC2AA",
"2X c #F5C3A5",
"3X c #FCC3A4",
"4X c #F4C4AC",
"5X c #FBC3AC",
"6X c #F9C9AC",
"7X c #EDC4B3",
"8X c #EAC5BB",
"9X c #EAC8B8",
"0X c #F4C4B3",
"qX c #F7C8B5",
"wX c #C9BBC8",
"eX c #ADCDDD",
"rX c #B3D0E1",
"tX c #CEC3D4",
"yX c #D6D8DA",
"uX c #EBC7C3",
"iX c #F3CECE",
"pX c #F6DAD9",
"aX c #D6E5DE",
"sX c #E7DCE6",
"dX c #F6D9E5",
"fX c #EADDF1",
"gX c #C9E6E2",
"hX c #D8E6E6",
"jX c #E7E3E7",
/* pixels */
"D.N.N.D.A.A.N.N.A.D.F.J.J.G.D.D.D.N.N.D.D.D.N.N.D.D.N.b.N.D.N.N.D.N.N.D.D.D.H.H.G.D.D.G.F.D.A.A.A.N.",
"D.D.D.N.N.N.D.D.N.A.D.D.H.J.F.G.K.F.D.D.D.D.D.D.N.v.v.v.v.v.v.n.D.n.b.D.D.D.N.F.J.G.D.K.H.D.N.N.N.A.",
"N.N.N.N.N.A.D.D.N.A.D.N.D.G.D.F.G.b.z.A B M p 4 4 4 4 8 8 4 4 4 p N.N.D.D.D.N.A.G.D.D.G.D.N.A.A.A.N.",
"N.N.N.N.A.D.D.D.N.A.A.N.N.A.D.D.b.6 6 8 8 8 8 q 8 8 8 8 8 6 6 6 9 A N.D.D.D.N.N.D.D.D.D.N.N.D.D.D.N.",
"N.N.D.D.G.J.F.D.D.N.N.A.N.n.N.n.V H H H H H G G G G H H H H H H d X D.N.A.D.D.D.D.N.N.D.N.n.A.G.J.F.",
"N.G.H.H.H.H.D.D.N.N.N.D.N.n.A M R R R R R T E ] E E R R R R R R R 8 2 N.N.N.D.D.N.N.N.N.N.N.N.G.K.J.",
"D.J.K.K.H.D.D.D.N.Z.D.D.D.Z 6 8 ' W R R R R [ [ W [ R R R R R R P q 6 X S N.D.N.v.n.N.N.N.D.N.D.J.K.",
"D.J.K.G.D.D.D.D.N.A.G.J.D K K L R W R R R R R R R R R ( R R R R T P L d 4 4 b.N.v.n.N.D.n.n.N.D.F.J.",
"D.J.J.F.D.D.Z.N.N.Z.F.m 2 U ` R T [ R ' ' R R R R R R o.U [ I [ R ' ' H 2 4 N N.b.N.N.D.N.n.A.D.D.H.",
"D.F.F.D.Z.N.b.n.D.N.N.4 6 U ' R [ [ T T I R R ' ( o.T R [ E [ R R T Y J w 4 N N.Z.D.D.D.N.N.D.D.D.D.",
"D.N.n.D.D.N.b.b.N.N.z.4 6 U R ' R ' E [ ] [ R Y Y ' T E ] T [ R ' ' R J w 2 S N.N.D.D.D.D.N.N.N.N.N.",
"D.b.v.A.D.Z.b.v.N.A.z.4 8 U T R X.Y U ] ] ] U o.' R ] { T [ Y ( L Y o.J 6 2 z.A.N.D.D.D.D.D.N.N.N.A.",
"N.A.D.N.N.D.N.N.D.D.z.4 8 U T o.! ..O.T ] [ U Y Y U ] { T Y  .! +.L ( J w 7 z.G.J.F.D.D.J.J.F.D.D.N.",
"N.A.A.N.N.A.D.D.G.D.z.6 w U R +.*X&X/.o.T [ ' X.o.' T P ' X.*X*X/.X.( J w 2 l.G.J.H.G.A.G.J.D.D.D.N.",
"D.N.N.D.N.B.J.J.K.G.z.6 w U R +.:X0X}.^ Y R Y Y L Y [ [ o.! 8X8X|.X.Y J w 7 Z D.F.J.K.N.N.N.D.D.D.D.",
"N.n.b.N.N.D.G.H.K.J.V.8 q I R *.=X5X%X#.-.-.$.$.$.+.-.-.#.%.qX0X|.L X.J 6 9 N D.D.G.G.A.A.Z.N.N.N.D.",
"N.b.v.N.Z.D.D.D.J.J.V.q 0 T R -.7X3X6X-X0XqX4X6X5X-XqX=X6X5X5X0X|.^ ( J 0 q B D.D.D.D.Z.Z.N.N.N.N.D.",
"N.b.v.A.D.D.D.D.D.H.V.6 6 T o.+.8X0X5X5XqX4X#X3X$X3X3X5X;X;X-X8X|.^ o.J 8 O . A.N.D.D.N.b.b.N.N.D.D.",
"N.n.b.N.D.D.A.A.D.G.F / ! ~ O.+.}.%XoXoXoX&X5X3X3X2X6XoXoX%X%X%X'.^ ( ^ ! c ! . n.N.A.N.N.n.N.N.D.D.",
"D.N.N.N.N.D.N.c.c.z.(.8XuX$.^ ( k a a a a t.4X3X6X=X7XC a a a f f ^ ( E.uX8Xe.@ O n.N.D.D.D.D.D.D.D.",
"D.N.N.D.D.D.N.v.< o `.1X9X$.X.L f a f a a t.6X;X5X0XqX@.p f f f L ( ^ E.-X6Xt.@ # N.N.D.D.G.J.J.D.N.",
"D.N.N.G.F.D.N.b.u 3 (.qX9X..L O.<.u.-.r p t.5X3X5X0X:X@.f d y.<.-.X.^ R.6X2Xe.- # n.N.D.G.J.K.J.D.N.",
"D.D.D.K.J.D.D.C.2 e _.9X8X#.X.-.:X9X'.= = t.3X$X3X0X0Xx e @ 8XqX|.! ( i.1X1Xt.@ # S D.D.J.K.J.J.D.D.",
"N.D.D.H.H.H.F.b.C.F '.<XuX#./ @.4X2X].= = t.3X$X;X0X0Xc o e 0X2XoXc / u.uXiX<.# # z.J.D.J.J.H.G.D.A.",
"N.A.D.D.H.J.F.F.K.N.&.y.e.6.6.8.#X6X].& r ;..XY..XXXXXl t e 1X3XOX6.%.;.y.u.$.  D.K.K.D.H.J.D.D.D.N.",
"D.N.N.D.N.N.D.D.D.N.B r % e.h.j.3X4X`.& & ) d.0.a.s.g.g & % iX;X@Xs.W.#.3 2 . A.N.J.J.D.N.N.D.N.v.N.",
"D.N.N.D.D.N.D.A.N.N.m 7 t y.h.g.5X4X`.; ; @.d.0.a.d.s.j % ; =X5X@Xg.i.+.9 1 N D.A.G.H.D.A.N.N.N.n.Z.",
"D.N.N.D.D.D.D.Z.v.b.s 6 t f l v P.I. XP.`. X+X+X+X@X.XI.).`. XI.p.j h f 9 4 B D.D.D.D.D.D.D.N.N.D.D.",
"D.D.A.D.G.J.F.D.N.n.i 4 3 t o y p.0.U.5X6X2X$X,X$X3X,X3X5X5X9.d.6.$ e @ O # S Z.D.D.D.N.D.D.A.A.D.N.",
"D.D.F.D.H.J.F.D.D.x.p p - p r a r.a.I.-X=X5X,X$X$X$X#X;X;X;Xa.p.%.a e p > $   N.D.D.A.N.N.D.D.D.D.n.",
"D.J.K.K.H.D.D.D.c.B /.%X&X*XwXwX@.v b p.8.p.d.k.k.k.d.9.8.7.v / <.tXtXwXOXOXt.# O b.v.N.N.F.J.J.D.D.",
"J.J.K.G.F.D.N.c.m = ).8X8XpXsXtXc x v 3.4.8.j.a.a.d.j.7.5.7.l c ,.sXfXpX=X6Xe.* - : v.A.D.D.G.H.J.G.",
"K.K.J.D.A.A.N.v.; ; ).>XuXpXsXyX .x v 4.4.8.g.s.s.s.g.7.3.6.x z ,.sXsXiX>X5Xr.; * . v.D.D.D.A.G.K.G.",
"J.H.G.D.A.c.n.t.8X>X.Xp.f.h O 5 z x v 3.4. XiXpXpXpXiXf.6.3.x z f r o @.a.d. XuX*X..8 1 N.N.D.G.J.G.",
"J.D.A.D.N.v.O t.7X-XU.0.g.y r 3 z c _ q.w.}.dXjXsXsXdXi.q.w.l / ~ @ = v d.9..X0XiXV # 4 x.N.D.G.J.D.",
"D.N.N.D.N.c.* t.0X2XY.U.P.h e t / ) _ q.w.}.sXhXjXsXdXi.q.q.) / Q 3 r @.L.U.+X=X=Xj - + x.b.A.D.D.N.",
"N.A.A.D.D.x.- t.1X6X,X-X7Xc < u w.4.4.4.3.].jXaXhXaXdXi.q.4.4.q.+.t 3 e.5X3X2X6XqXj * @ Z.N.N.N.D.D.",
"N.A.D.D.D.F @ u.9X1X6XqXuXk t u =.4.w.w.;.{.hXhXgXhXjXR.w.3.w.=.+.7 t <.7X2X1X9X9Xx @ e D.D.N.N.D.D.",
"D.b.v.A.N.A p 2.'.].`.`.'.f 9 9  .+.#.;.:.[.eXeXrXrXrXT.:.;.+.+.( 7 2 +.].`._._.'.z p 5 D.D.D.A.N.A.",
"D.N.n.N.n.b.: 5 = * & e = 3 4 4 5 3 f :.1.T.~.^.^.^.~.T.:.1.< 3 3 7 6 5 * $ @ * *   B D.D.D.Z.N.n.N.",
"D.D.D.N.n.n.B.p 3 e t t 2 9 4 4 @ - f -.>.Q.^.!.!.^.~.T.>.:.e @ r 3 6 i O # 5 # m J.J.D.D.D.N.N.b.N.",
"D.N.N.D.A.A.D.N.z.Z S A X 6 2 p ..@.#.2.T.>.} | | | } 1.2.y.@.@.! 3 9 2   A c.G.J.F.A.N.Z.D.D.D.N.N.",
"D.N.N.D.D.D.D.D.F.D.D.F.Z 6 9 a p.a.a.h.R.+.8 0 0 q 3 ;.h.g.a.p.;.e 3   H.J.D.G.J.A.N.N.Z.D.D.D.D.N.",
"D.D.D.J.H.D.D.F.K.G.G.K.G.s 7 y p.d.p.f.i.$.3 < 6 3 & y.h.f.d.g.e.= # S D.D.D.A.N.N.N.D.D.D.N.N.D.D.",
"D.H.J.G.D.D.D.F.K.J.J.H.G.b.B n Q Q k z z a , N , :   f k k Q Q f . , D.D.D.N.N.N.n.b.D.D.D.G.G.D.Z.",
"G.J.K.A.B.D.D.D.J.J.J.D.D.Z.N.v.d 2 7 3 e   N.N.N.D.c.5 3 7 w 9 + c.D.G.D.D.N.N.A.b.v.D.D.F.J.J.G.A.",
"K.K.J.D.D.D.N.N.D.J.J.N.N.N.N.N.i 2 5 3 3 D.D.N.v.N.D.+ 3 3 3 2 # D.F.K.G.D.D.D.A.b.v.N.Z.D.F.H.J.G.",
"K.J.J.D.D.D.N.N.D.G.G.N.N.N.N.N.v.n , , v.D.A.N.n.N.D.N.Z Z A n S G.H.J.G.D.N.N.N.n.n.N.N.A.D.G.K.G.",
"J.G.D.N.N.D.D.D.D.N.N.D.D.A.b.n.D.D.D.D.D.D.N.N.D.N.N.D.D.D.J.H.D.J.J.D.D.D.b.b.N.D.D.D.N.N.D.G.J.G.",
"G.D.D.D.N.N.D.D.N.N.N.D.A.N.N.N.D.J.J.F.A.N.N.N.D.N.N.D.D.N.G.D.N.D.G.N.N.N.N.N.A.N.N.D.D.Z.N.N.D.D."
};
